<?xml version="1.0" encoding="UTF-8" standalone="no"?>
<!DOCTYPE svg PUBLIC "-//W3C//DTD SVG 1.1//EN"
 "http://www.w3.org/Graphics/SVG/1.1/DTD/svg11.dtd">
<!-- Generated by graphviz version 2.43.0 (0)
 -->
<!-- Title: %3 Pages: 1 -->
<svg width="259pt" height="260pt"
 viewBox="0.00 0.00 258.54 260.00" xmlns="http://www.w3.org/2000/svg" xmlns:xlink="http://www.w3.org/1999/xlink">
<g id="graph0" class="graph" transform="scale(1 1) rotate(0) translate(4 256)">
<title>%3</title>
<polygon fill="white" stroke="transparent" points="-4,4 -4,-256 254.54,-256 254.54,4 -4,4"/>
<!-- numpy -->
<g id="node1" class="node">
<title>numpy</title>
<polygon fill="none" stroke="black" points="124.75,-36 59.75,-36 59.75,0 124.75,0 124.75,-36"/>
<text text-anchor="middle" x="92.25" y="-14.3" font-family="Times,serif" font-size="14.00">numpy</text>
</g>
<!-- pandas -->
<g id="node2" class="node">
<title>pandas</title>
<polygon fill="none" stroke="black" points="126.25,-108 58.25,-108 58.25,-72 126.25,-72 126.25,-108"/>
<text text-anchor="middle" x="92.25" y="-86.3" font-family="Times,serif" font-size="14.00">pandas</text>
</g>
<!-- pandas&#45;&gt;numpy -->
<g id="edge6" class="edge">
<title>pandas&#45;&gt;numpy</title>
<path fill="none" stroke="black" d="M92.25,-71.7C92.25,-63.98 92.25,-54.71 92.25,-46.11"/>
<polygon fill="black" stroke="black" points="95.75,-46.1 92.25,-36.1 88.75,-46.1 95.75,-46.1"/>
</g>
<!-- mikecore -->
<g id="node3" class="node">
<title>mikecore</title>
<ellipse fill="none" stroke="black" cx="197.25" cy="-90" rx="53.09" ry="18"/>
<text text-anchor="middle" x="197.25" y="-86.3" font-family="Times,serif" font-size="14.00">mikecore</text>
</g>
<!-- mikecore&#45;&gt;numpy -->
<g id="edge5" class="edge">
<title>mikecore&#45;&gt;numpy</title>
<path fill="none" stroke="black" d="M174.2,-73.64C160.15,-64.27 141.92,-52.12 126.23,-41.65"/>
<polygon fill="black" stroke="black" points="128.07,-38.68 117.81,-36.04 124.19,-44.5 128.07,-38.68"/>
</g>
<!-- ufs -->
<g id="node5" class="node">
<title>ufs</title>
<ellipse fill="none" stroke="black" cx="197.25" cy="-18" rx="27" ry="18"/>
<text text-anchor="middle" x="197.25" y="-14.3" font-family="Times,serif" font-size="14.00">ufs</text>
</g>
<!-- mikecore&#45;&gt;ufs -->
<g id="edge4" class="edge">
<title>mikecore&#45;&gt;ufs</title>
<path fill="none" stroke="black" d="M197.25,-71.7C197.25,-63.98 197.25,-54.71 197.25,-46.11"/>
<polygon fill="black" stroke="black" points="200.75,-46.1 197.25,-36.1 193.75,-46.1 200.75,-46.1"/>
</g>
<!-- mikeio -->
<g id="node4" class="node">
<title>mikeio</title>
<ellipse fill="none" stroke="black" cx="92.25" cy="-162" rx="41.69" ry="18"/>
<text text-anchor="middle" x="92.25" y="-158.3" font-family="Times,serif" font-size="14.00">mikeio</text>
</g>
<!-- mikeio&#45;&gt;numpy -->
<g id="edge3" class="edge">
<title>mikeio&#45;&gt;numpy</title>
<path fill="none" stroke="black" d="M74.55,-145.22C65.07,-135.54 54.32,-122.29 49.25,-108 43.9,-92.92 43.9,-87.08 49.25,-72 52.91,-61.68 59.53,-51.9 66.5,-43.61"/>
<polygon fill="black" stroke="black" points="69.12,-45.94 73.21,-36.16 63.92,-41.26 69.12,-45.94"/>
</g>
<!-- mikeio&#45;&gt;pandas -->
<g id="edge2" class="edge">
<title>mikeio&#45;&gt;pandas</title>
<path fill="none" stroke="black" d="M92.25,-143.7C92.25,-135.98 92.25,-126.71 92.25,-118.11"/>
<polygon fill="black" stroke="black" points="95.75,-118.1 92.25,-108.1 88.75,-118.1 95.75,-118.1"/>
</g>
<!-- mikeio&#45;&gt;mikecore -->
<g id="edge1" class="edge">
<title>mikeio&#45;&gt;mikecore</title>
<path fill="none" stroke="black" d="M114,-146.5C128.94,-136.54 149,-123.16 165.69,-112.04"/>
<polygon fill="black" stroke="black" points="167.68,-114.92 174.06,-106.46 163.8,-109.09 167.68,-114.92"/>
</g>
<!-- fmskill -->
<g id="node6" class="node">
<title>fmskill</title>
<ellipse fill="none" stroke="black" cx="42.25" cy="-234" rx="42.49" ry="18"/>
<text text-anchor="middle" x="42.25" y="-230.3" font-family="Times,serif" font-size="14.00">fmskill</text>
</g>
<!-- fmskill&#45;&gt;mikeio -->
<g id="edge7" class="edge">
<title>fmskill&#45;&gt;mikeio</title>
<path fill="none" stroke="black" d="M54.1,-216.41C60.2,-207.87 67.76,-197.28 74.54,-187.79"/>
<polygon fill="black" stroke="black" points="77.52,-189.64 80.48,-179.47 71.82,-185.57 77.52,-189.64"/>
</g>
<!-- fmdap -->
<g id="node7" class="node">
<title>fmdap</title>
<ellipse fill="none" stroke="black" cx="143.25" cy="-234" rx="40.09" ry="18"/>
<text text-anchor="middle" x="143.25" y="-230.3" font-family="Times,serif" font-size="14.00">fmdap</text>
</g>
<!-- fmdap&#45;&gt;mikeio -->
<g id="edge8" class="edge">
<title>fmdap&#45;&gt;mikeio</title>
<path fill="none" stroke="black" d="M131.42,-216.76C125.14,-208.14 117.28,-197.36 110.26,-187.73"/>
<polygon fill="black" stroke="black" points="113.08,-185.65 104.36,-179.63 107.42,-189.78 113.08,-185.65"/>
</g>
</g>
</svg>
