<?xml version="1.0" encoding="UTF-8" standalone="no"?>
<!DOCTYPE svg PUBLIC "-//W3C//DTD SVG 1.1//EN"
 "http://www.w3.org/Graphics/SVG/1.1/DTD/svg11.dtd">
<!-- Generated by graphviz version 2.43.0 (0)
 -->
<!-- Title: %3 Pages: 1 -->
<svg width="189pt" height="260pt"
 viewBox="0.00 0.00 189.29 260.00" xmlns="http://www.w3.org/2000/svg" xmlns:xlink="http://www.w3.org/1999/xlink">
<g id="graph0" class="graph" transform="scale(1 1) rotate(0) translate(4 256)">
<title>%3</title>
<polygon fill="white" stroke="transparent" points="-4,4 -4,-256 185.29,-256 185.29,4 -4,4"/>
<!-- numpy -->
<g id="node1" class="node">
<title>numpy</title>
<polygon fill="none" stroke="black" points="75.6,-36 20.6,-36 20.6,0 75.6,0 75.6,-36"/>
<text text-anchor="middle" x="48.1" y="-14.3" font-family="Times,serif" font-size="14.00">numpy</text>
</g>
<!-- pandas -->
<g id="node2" class="node">
<title>pandas</title>
<polygon fill="none" stroke="black" points="75.1,-108 21.1,-108 21.1,-72 75.1,-72 75.1,-108"/>
<text text-anchor="middle" x="48.1" y="-86.3" font-family="Times,serif" font-size="14.00">pandas</text>
</g>
<!-- pandas&#45;&gt;numpy -->
<g id="edge6" class="edge">
<title>pandas&#45;&gt;numpy</title>
<path fill="none" stroke="black" d="M48.1,-71.7C48.1,-63.98 48.1,-54.71 48.1,-46.11"/>
<polygon fill="black" stroke="black" points="51.6,-46.1 48.1,-36.1 44.6,-46.1 51.6,-46.1"/>
</g>
<!-- mikecore -->
<g id="node3" class="node">
<title>mikecore</title>
<ellipse fill="none" stroke="black" cx="137.1" cy="-90" rx="44.39" ry="18"/>
<text text-anchor="middle" x="137.1" y="-86.3" font-family="Times,serif" font-size="14.00">mikecore</text>
</g>
<!-- mikecore&#45;&gt;numpy -->
<g id="edge5" class="edge">
<title>mikecore&#45;&gt;numpy</title>
<path fill="none" stroke="black" d="M117.34,-73.46C105.83,-64.41 91.08,-52.81 78.16,-42.64"/>
<polygon fill="black" stroke="black" points="80,-39.64 69.98,-36.21 75.67,-45.14 80,-39.64"/>
</g>
<!-- ufs -->
<g id="node5" class="node">
<title>ufs</title>
<ellipse fill="none" stroke="black" cx="137.1" cy="-18" rx="27" ry="18"/>
<text text-anchor="middle" x="137.1" y="-14.3" font-family="Times,serif" font-size="14.00">ufs</text>
</g>
<!-- mikecore&#45;&gt;ufs -->
<g id="edge4" class="edge">
<title>mikecore&#45;&gt;ufs</title>
<path fill="none" stroke="black" d="M137.1,-71.7C137.1,-63.98 137.1,-54.71 137.1,-46.11"/>
<polygon fill="black" stroke="black" points="140.6,-46.1 137.1,-36.1 133.6,-46.1 140.6,-46.1"/>
</g>
<!-- mikeio -->
<g id="node4" class="node">
<title>mikeio</title>
<ellipse fill="none" stroke="black" cx="48.1" cy="-162" rx="36" ry="18"/>
<text text-anchor="middle" x="48.1" y="-158.3" font-family="Times,serif" font-size="14.00">mikeio</text>
</g>
<!-- mikeio&#45;&gt;numpy -->
<g id="edge3" class="edge">
<title>mikeio&#45;&gt;numpy</title>
<path fill="none" stroke="black" d="M33.61,-145.17C25.56,-135.27 16.35,-121.82 12.1,-108 7.39,-92.71 7.39,-87.29 12.1,-72 15.1,-62.22 20.6,-52.62 26.41,-44.33"/>
<polygon fill="black" stroke="black" points="29.29,-46.33 32.49,-36.23 23.69,-42.13 29.29,-46.33"/>
</g>
<!-- mikeio&#45;&gt;pandas -->
<g id="edge2" class="edge">
<title>mikeio&#45;&gt;pandas</title>
<path fill="none" stroke="black" d="M48.1,-143.7C48.1,-135.98 48.1,-126.71 48.1,-118.11"/>
<polygon fill="black" stroke="black" points="51.6,-118.1 48.1,-108.1 44.6,-118.1 51.6,-118.1"/>
</g>
<!-- mikeio&#45;&gt;mikecore -->
<g id="edge1" class="edge">
<title>mikeio&#45;&gt;mikecore</title>
<path fill="none" stroke="black" d="M66.54,-146.5C79.05,-136.65 95.81,-123.47 109.85,-112.43"/>
<polygon fill="black" stroke="black" points="112.06,-115.15 117.75,-106.21 107.73,-109.64 112.06,-115.15"/>
</g>
<!-- modelskill -->
<g id="node6" class="node">
<title>modelskill</title>
<ellipse fill="none" stroke="black" cx="48.1" cy="-234" rx="48.19" ry="18"/>
<text text-anchor="middle" x="48.1" y="-230.3" font-family="Times,serif" font-size="14.00">modelskill</text>
</g>
<!-- modelskill&#45;&gt;mikeio -->
<g id="edge7" class="edge">
<title>modelskill&#45;&gt;mikeio</title>
<path fill="none" stroke="black" d="M48.1,-215.7C48.1,-207.98 48.1,-198.71 48.1,-190.11"/>
<polygon fill="black" stroke="black" points="51.6,-190.1 48.1,-180.1 44.6,-190.1 51.6,-190.1"/>
</g>
</g>
</svg>
