<?xml version="1.0" encoding="UTF-8" standalone="no"?>
<!DOCTYPE svg PUBLIC "-//W3C//DTD SVG 1.1//EN"
 "http://www.w3.org/Graphics/SVG/1.1/DTD/svg11.dtd">
<!-- Generated by graphviz version 2.43.0 (0)
 -->
<!-- Title: %3 Pages: 1 -->
<svg width="213pt" height="188pt"
 viewBox="0.00 0.00 213.31 188.00" xmlns="http://www.w3.org/2000/svg" xmlns:xlink="http://www.w3.org/1999/xlink">
<g id="graph0" class="graph" transform="scale(1 1) rotate(0) translate(4 184)">
<title>%3</title>
<polygon fill="white" stroke="transparent" points="-4,4 -4,-184 209.31,-184 209.31,4 -4,4"/>
<!-- numpy -->
<g id="node1" class="node">
<title>numpy</title>
<polygon fill="none" stroke="black" points="79.51,-36 14.51,-36 14.51,0 79.51,0 79.51,-36"/>
<text text-anchor="middle" x="47.01" y="-14.3" font-family="Times,serif" font-size="14.00">numpy</text>
</g>
<!-- pandas -->
<g id="node2" class="node">
<title>pandas</title>
<polygon fill="none" stroke="black" points="81.01,-108 13.01,-108 13.01,-72 81.01,-72 81.01,-108"/>
<text text-anchor="middle" x="47.01" y="-86.3" font-family="Times,serif" font-size="14.00">pandas</text>
</g>
<!-- pandas&#45;&gt;numpy -->
<g id="edge6" class="edge">
<title>pandas&#45;&gt;numpy</title>
<path fill="none" stroke="black" d="M47.01,-71.7C47.01,-63.98 47.01,-54.71 47.01,-46.11"/>
<polygon fill="black" stroke="black" points="50.51,-46.1 47.01,-36.1 43.51,-46.1 50.51,-46.1"/>
</g>
<!-- mikecore -->
<g id="node3" class="node">
<title>mikecore</title>
<ellipse fill="none" stroke="black" cx="152.01" cy="-90" rx="53.09" ry="18"/>
<text text-anchor="middle" x="152.01" y="-86.3" font-family="Times,serif" font-size="14.00">mikecore</text>
</g>
<!-- mikecore&#45;&gt;numpy -->
<g id="edge5" class="edge">
<title>mikecore&#45;&gt;numpy</title>
<path fill="none" stroke="black" d="M128.97,-73.64C114.91,-64.27 96.69,-52.12 80.99,-41.65"/>
<polygon fill="black" stroke="black" points="82.84,-38.68 72.58,-36.04 78.96,-44.5 82.84,-38.68"/>
</g>
<!-- ufs -->
<g id="node5" class="node">
<title>ufs</title>
<ellipse fill="none" stroke="black" cx="152.01" cy="-18" rx="27" ry="18"/>
<text text-anchor="middle" x="152.01" y="-14.3" font-family="Times,serif" font-size="14.00">ufs</text>
</g>
<!-- mikecore&#45;&gt;ufs -->
<g id="edge4" class="edge">
<title>mikecore&#45;&gt;ufs</title>
<path fill="none" stroke="black" d="M152.01,-71.7C152.01,-63.98 152.01,-54.71 152.01,-46.11"/>
<polygon fill="black" stroke="black" points="155.51,-46.1 152.01,-36.1 148.51,-46.1 155.51,-46.1"/>
</g>
<!-- mikeio -->
<g id="node4" class="node">
<title>mikeio</title>
<ellipse fill="none" stroke="black" cx="47.01" cy="-162" rx="41.69" ry="18"/>
<text text-anchor="middle" x="47.01" y="-158.3" font-family="Times,serif" font-size="14.00">mikeio</text>
</g>
<!-- mikeio&#45;&gt;numpy -->
<g id="edge3" class="edge">
<title>mikeio&#45;&gt;numpy</title>
<path fill="none" stroke="black" d="M29.31,-145.22C19.83,-135.54 9.08,-122.29 4.01,-108 -1.34,-92.92 -1.34,-87.08 4.01,-72 7.67,-61.68 14.3,-51.9 21.27,-43.61"/>
<polygon fill="black" stroke="black" points="23.88,-45.94 27.97,-36.16 18.68,-41.26 23.88,-45.94"/>
</g>
<!-- mikeio&#45;&gt;pandas -->
<g id="edge2" class="edge">
<title>mikeio&#45;&gt;pandas</title>
<path fill="none" stroke="black" d="M47.01,-143.7C47.01,-135.98 47.01,-126.71 47.01,-118.11"/>
<polygon fill="black" stroke="black" points="50.51,-118.1 47.01,-108.1 43.51,-118.1 50.51,-118.1"/>
</g>
<!-- mikeio&#45;&gt;mikecore -->
<g id="edge1" class="edge">
<title>mikeio&#45;&gt;mikecore</title>
<path fill="none" stroke="black" d="M68.77,-146.5C83.7,-136.54 103.77,-123.16 120.45,-112.04"/>
<polygon fill="black" stroke="black" points="122.45,-114.92 128.83,-106.46 118.56,-109.09 122.45,-114.92"/>
</g>
</g>
</svg>
