<?xml version="1.0" encoding="UTF-8" standalone="no"?>
<!DOCTYPE svg PUBLIC "-//W3C//DTD SVG 1.1//EN"
 "http://www.w3.org/Graphics/SVG/1.1/DTD/svg11.dtd">
<!-- Generated by graphviz version 2.43.0 (0)
 -->
<!-- Title: %3 Pages: 1 -->
<svg width="181pt" height="188pt"
 viewBox="0.00 0.00 180.72 188.00" xmlns="http://www.w3.org/2000/svg" xmlns:xlink="http://www.w3.org/1999/xlink">
<g id="graph0" class="graph" transform="scale(1 1) rotate(0) translate(4 184)">
<title>%3</title>
<polygon fill="white" stroke="transparent" points="-4,4 -4,-184 176.72,-184 176.72,4 -4,4"/>
<!-- numpy -->
<g id="node1" class="node">
<title>numpy</title>
<polygon fill="none" stroke="black" points="67.03,-36 12.03,-36 12.03,0 67.03,0 67.03,-36"/>
<text text-anchor="middle" x="39.53" y="-14.3" font-family="Times,serif" font-size="14.00">numpy</text>
</g>
<!-- pandas -->
<g id="node2" class="node">
<title>pandas</title>
<polygon fill="none" stroke="black" points="66.53,-108 12.53,-108 12.53,-72 66.53,-72 66.53,-108"/>
<text text-anchor="middle" x="39.53" y="-86.3" font-family="Times,serif" font-size="14.00">pandas</text>
</g>
<!-- pandas&#45;&gt;numpy -->
<g id="edge6" class="edge">
<title>pandas&#45;&gt;numpy</title>
<path fill="none" stroke="black" d="M39.53,-71.7C39.53,-63.98 39.53,-54.71 39.53,-46.11"/>
<polygon fill="black" stroke="black" points="43.03,-46.1 39.53,-36.1 36.03,-46.1 43.03,-46.1"/>
</g>
<!-- mikecore -->
<g id="node3" class="node">
<title>mikecore</title>
<ellipse fill="none" stroke="black" cx="128.53" cy="-90" rx="44.39" ry="18"/>
<text text-anchor="middle" x="128.53" y="-86.3" font-family="Times,serif" font-size="14.00">mikecore</text>
</g>
<!-- mikecore&#45;&gt;numpy -->
<g id="edge5" class="edge">
<title>mikecore&#45;&gt;numpy</title>
<path fill="none" stroke="black" d="M108.78,-73.46C97.26,-64.41 82.51,-52.81 69.59,-42.64"/>
<polygon fill="black" stroke="black" points="71.43,-39.64 61.41,-36.21 67.11,-45.14 71.43,-39.64"/>
</g>
<!-- ufs -->
<g id="node5" class="node">
<title>ufs</title>
<ellipse fill="none" stroke="black" cx="128.53" cy="-18" rx="27" ry="18"/>
<text text-anchor="middle" x="128.53" y="-14.3" font-family="Times,serif" font-size="14.00">ufs</text>
</g>
<!-- mikecore&#45;&gt;ufs -->
<g id="edge4" class="edge">
<title>mikecore&#45;&gt;ufs</title>
<path fill="none" stroke="black" d="M128.53,-71.7C128.53,-63.98 128.53,-54.71 128.53,-46.11"/>
<polygon fill="black" stroke="black" points="132.03,-46.1 128.53,-36.1 125.03,-46.1 132.03,-46.1"/>
</g>
<!-- mikeio -->
<g id="node4" class="node">
<title>mikeio</title>
<ellipse fill="none" stroke="black" cx="39.53" cy="-162" rx="36" ry="18"/>
<text text-anchor="middle" x="39.53" y="-158.3" font-family="Times,serif" font-size="14.00">mikeio</text>
</g>
<!-- mikeio&#45;&gt;numpy -->
<g id="edge3" class="edge">
<title>mikeio&#45;&gt;numpy</title>
<path fill="none" stroke="black" d="M25.04,-145.17C16.99,-135.27 7.78,-121.82 3.53,-108 -1.18,-92.71 -1.18,-87.29 3.53,-72 6.54,-62.22 12.03,-52.62 17.84,-44.33"/>
<polygon fill="black" stroke="black" points="20.72,-46.33 23.92,-36.23 15.12,-42.13 20.72,-46.33"/>
</g>
<!-- mikeio&#45;&gt;pandas -->
<g id="edge2" class="edge">
<title>mikeio&#45;&gt;pandas</title>
<path fill="none" stroke="black" d="M39.53,-143.7C39.53,-135.98 39.53,-126.71 39.53,-118.11"/>
<polygon fill="black" stroke="black" points="43.03,-118.1 39.53,-108.1 36.03,-118.1 43.03,-118.1"/>
</g>
<!-- mikeio&#45;&gt;mikecore -->
<g id="edge1" class="edge">
<title>mikeio&#45;&gt;mikecore</title>
<path fill="none" stroke="black" d="M57.97,-146.5C70.48,-136.65 87.24,-123.47 101.28,-112.43"/>
<polygon fill="black" stroke="black" points="103.49,-115.15 109.19,-106.21 99.16,-109.64 103.49,-115.15"/>
</g>
</g>
</svg>
